<svg width="35" height="35" viewBox="0 0 35 35" fill="none" xmlns="http://www.w3.org/2000/svg">
<path d="M25.9792 29.1667H7.02084L2.64584 33.5417V8.75C2.64584 6.34375 4.61459 4.375 7.02084 4.375H25.9792C28.3854 4.375 30.3542 6.34375 30.3542 8.75V24.7917C30.3542 27.1979 28.3854 29.1667 25.9792 29.1667Z" fill="black"/>
<path d="M15.0417 14.5833H17.9583V22.6041H15.0417V14.5833Z" fill="white"/>
<path d="M16.5 12.3958C17.3054 12.3958 17.9583 11.7429 17.9583 10.9375C17.9583 10.1321 17.3054 9.47916 16.5 9.47916C15.6946 9.47916 15.0417 10.1321 15.0417 10.9375C15.0417 11.7429 15.6946 12.3958 16.5 12.3958Z" fill="white"/>
</svg>
