<svg width="35" height="35" viewBox="0 0 35 35" fill="none" xmlns="http://www.w3.org/2000/svg">
<g clip-path="url(#clip0_1_23)">
<path d="M14.3125 8.75V10.9375H7.75V8.75H14.3125ZM7.75 15.3125V13.125H14.3125V15.3125H7.75ZM7.75 19.6875V17.5H12.125V19.6875H7.75ZM5.5625 8.75V10.9375H3.375V8.75H5.5625ZM5.5625 13.125V15.3125H3.375V13.125H5.5625ZM3.375 19.6875V17.5H5.5625V19.6875H3.375ZM1.1875 2.1875V32.8125H12.125V35H-1V0H18.0552L27.4375 9.38232V13.125H25.25V10.9375H16.5V2.1875H1.1875ZM18.6875 3.74268V8.75H23.6948L18.6875 3.74268ZM29.625 17.5H34V35H14.3125V17.5H18.6875V15.3125H20.875V17.5H27.4375V15.3125H29.625V17.5ZM31.8125 32.8125V24.0625H16.5V32.8125H31.8125ZM31.8125 21.875V19.6875H16.5V21.875H31.8125Z" fill="black"/>
</g>
<defs>
<clipPath id="clip0_1_23">
<rect width="35" height="35" fill="white"/>
</clipPath>
</defs>
</svg>
