<svg width="35" height="35" viewBox="0 0 35 35" fill="none" xmlns="http://www.w3.org/2000/svg">
<path d="M20.8721 7.29166C23.55 7.29035 26.1213 8.34141 28.0315 10.2182C29.9417 12.0951 31.038 14.6474 31.0839 17.325C31.1298 20.0025 30.1217 22.5909 28.277 24.5322C26.4322 26.4734 23.8985 27.612 21.2221 27.7025L20.8721 27.7083H12.1279C9.44995 27.7096 6.87871 26.6586 4.96847 24.7817C3.05824 22.9049 1.96201 20.3526 1.9161 17.675C1.87018 14.9974 2.87826 12.4091 4.72302 10.4678C6.56778 8.52659 9.10148 7.388 11.7779 7.29749L12.1265 7.29166H20.8721ZM20.5104 18.2292C20.0269 18.2292 19.5633 18.4212 19.2214 18.7631C18.8796 19.1049 18.6875 19.5686 18.6875 20.0521C18.6875 20.5355 18.8796 20.9992 19.2214 21.3411C19.5633 21.6829 20.0269 21.875 20.5104 21.875C20.9939 21.875 21.4575 21.6829 21.7994 21.3411C22.1413 20.9992 22.3333 20.5355 22.3333 20.0521C22.3333 19.5686 22.1413 19.1049 21.7994 18.7631C21.4575 18.4212 20.9939 18.2292 20.5104 18.2292ZM10.6667 13.125C10.4024 13.125 10.147 13.2207 9.94781 13.3944C9.74861 13.5682 9.61907 13.8081 9.58312 14.07L9.57291 14.2187V16.4033H7.38541C7.10632 16.4005 6.8367 16.5045 6.63177 16.6939C6.42684 16.8834 6.30209 17.1441 6.28308 17.4225C6.26407 17.701 6.35223 17.9762 6.52951 18.1917C6.70679 18.4073 6.95977 18.547 7.23666 18.5821L7.38541 18.5923L9.57291 18.5908V20.7812C9.573 21.0584 9.67827 21.3251 9.86746 21.5276C10.0566 21.7301 10.3156 21.8532 10.5921 21.8721C10.8686 21.891 11.1419 21.8042 11.3569 21.6294C11.5719 21.4545 11.7124 21.2045 11.7502 20.93L11.7604 20.7812V18.5908H13.9479C14.2233 18.5882 14.4876 18.4819 14.688 18.293C14.8883 18.104 15.0101 17.8465 15.0289 17.5717C15.0476 17.297 14.9621 17.0252 14.7893 16.8108C14.6165 16.5964 14.3691 16.455 14.0967 16.415L13.9479 16.4048L11.7604 16.4033V14.2187C11.7604 13.9287 11.6452 13.6505 11.4401 13.4453C11.2349 13.2402 10.9567 13.125 10.6667 13.125ZM23.4271 13.125C22.9436 13.125 22.4799 13.317 22.1381 13.6589C21.7962 14.0008 21.6042 14.4644 21.6042 14.9479C21.6042 15.4314 21.7962 15.895 22.1381 16.2369C22.4799 16.5788 22.9436 16.7708 23.4271 16.7708C23.9105 16.7708 24.3742 16.5788 24.7161 16.2369C25.0579 15.895 25.25 15.4314 25.25 14.9479C25.25 14.4644 25.0579 14.0008 24.7161 13.6589C24.3742 13.317 23.9105 13.125 23.4271 13.125Z" fill="black"/>
</svg>
