<svg width="35" height="35" viewBox="0 0 35 35" fill="none" xmlns="http://www.w3.org/2000/svg">
<path d="M9.90104 30.625C7.68923 30.625 5.80555 29.8472 4.25 28.2917C2.69444 26.7361 1.91666 24.8524 1.91666 22.6406C1.91666 20.5503 2.61569 18.7454 4.01375 17.2258C5.4118 15.7062 7.15548 14.8619 9.24479 14.6927L3.375 2.91666H13.5833L16.5 8.74999L19.4167 2.91666H29.625L23.7917 14.6198C25.8576 14.8142 27.5897 15.6712 28.9877 17.1908C30.3858 18.7104 31.0843 20.5149 31.0833 22.6042C31.0833 24.8403 30.3056 26.7361 28.75 28.2917C27.1944 29.8472 25.2986 30.625 23.0625 30.625C22.8437 30.625 22.6192 30.6192 22.3887 30.6075C22.1583 30.5958 21.9333 30.5652 21.7135 30.5156C23.0503 29.6406 24.0955 28.5046 24.849 27.1075C25.6024 25.7104 25.9792 24.2093 25.9792 22.6042C25.9792 19.9549 25.0614 17.7129 23.2258 15.8783C21.3903 14.0437 19.1483 13.126 16.5 13.125C13.8517 13.124 11.6097 14.0418 9.77416 15.8783C7.93861 17.7149 7.02083 19.9568 7.02083 22.6042C7.02083 24.2569 7.36111 25.8125 8.04166 27.2708C8.72222 28.7292 9.79166 29.8108 11.25 30.5156C11.0312 30.5642 10.8067 30.5949 10.5762 30.6075C10.3458 30.6201 10.1208 30.626 9.90104 30.625ZM16.5 29.1667C14.6771 29.1667 13.1278 28.5289 11.8523 27.2533C10.5767 25.9778 9.93847 24.428 9.9375 22.6042C9.93653 20.7803 10.5748 19.231 11.8523 17.9564C13.1298 16.6819 14.679 16.0436 16.5 16.0417C18.321 16.0397 19.8707 16.678 21.1492 17.9564C22.4276 19.2349 23.0654 20.7842 23.0625 22.6042C23.0596 24.4242 22.4218 25.9739 21.1492 27.2533C19.8765 28.5328 18.3268 29.1705 16.5 29.1667ZM13.8021 26.6146L16.5 24.5729L19.1979 26.6146L18.1771 23.2969L20.875 21.3646H17.5573L16.5 17.8646L15.4427 21.3646H12.125L14.8229 23.2969L13.8021 26.6146Z" fill="black"/>
</svg>
